<svg width="314" height="56" viewBox="0 0 314 56" fill="none" xmlns="http://www.w3.org/2000/svg">
<path d="M17.5683 26.2407L29.9586 38.5391L14.3279 53.112C12.4253 54.9989 9.78997 55.7429 7.24649 55.3574C3.79542 54.8375 0.931477 52.1036 0.187481 48.7085C-0.294325 46.5102 0.00372324 43.6754 2.86542 40.8338L17.5683 26.2385V26.2407Z" fill="url(#paint0_linear_1_3595)"/>
<path d="M19.3297 30.187L3.90299 14.8746C0.653605 11.6498 0.718592 6.35893 4.04417 3.058C7.37198 -0.245164 12.701 -0.307911 15.9504 2.91682L32.9726 19.8114C33.7166 20.5487 34.4786 21.2658 35.2427 21.9829C37.0198 23.6501 41.2978 28.7012 34.4517 34.6375C26.9669 41.1273 18.4311 49.1925 18.4311 49.1925C18.4311 49.1925 25.2839 38.7519 19.3297 30.187Z" fill="url(#paint1_linear_1_3595)"/>
<path d="M45.5967 13.9659H52.2412C57.5029 13.9659 61.4156 15.3575 63.9838 18.1385C66.5497 20.9195 67.8337 24.095 67.8337 27.6648C67.8337 31.2346 66.5071 34.4459 63.856 37.2135C61.2027 39.9811 57.3483 41.3638 52.286 41.3638H45.5967V13.9659ZM49.3369 17.6208V37.6639H49.552C52.333 37.6639 54.4261 37.5384 55.8312 37.2875C57.2363 37.0365 58.5696 36.4874 59.8313 35.6426C61.0929 34.7955 62.0969 33.675 62.8431 32.2767C63.5894 30.8783 63.9614 29.341 63.9614 27.6626C63.9614 25.5561 63.3675 23.649 62.1776 21.9436C60.9876 20.2383 59.5646 19.0909 57.9085 18.5038C56.2525 17.9166 54.0272 17.6231 51.2305 17.6231H49.3391L49.3369 17.6208Z" fill="url(#paint2_linear_1_3595)"/>
<path d="M89.5083 33.2112H74.3684C74.6978 35.0331 75.4463 36.362 76.616 37.2001C77.7858 38.0382 79.0564 38.4573 80.4324 38.4573C82.5546 38.4573 84.3316 37.5766 85.7659 35.8129L88.4976 37.8769C86.4471 40.5302 83.7019 41.8546 80.2621 41.8546C77.6245 41.8546 75.4149 40.9515 73.6378 39.1452C71.8607 37.339 70.9711 35.0958 70.9711 32.4157C70.9711 29.9058 71.8719 27.7298 73.6692 25.8878C75.4687 24.0457 77.6648 23.1247 80.2598 23.1247C82.8549 23.1247 84.9972 24.0591 86.8191 25.9303C88.6388 27.8015 89.5351 30.2285 89.506 33.209L89.5083 33.2112ZM74.756 30.224H85.5955C84.3922 27.7858 82.6128 26.5668 80.2621 26.5668C77.6962 26.5668 75.8608 27.7858 74.756 30.224Z" fill="url(#paint3_linear_1_3595)"/>
<path d="M91.9823 23.6199H95.9017L100.977 33.879L105.908 23.6199H109.852L100.917 42.0293L91.9823 23.6199Z" fill="url(#paint4_linear_1_3595)"/>
<path d="M127.75 30.7954V41.3638H124.158V30.3338C124.158 29.2178 123.705 28.2139 122.984 27.4856C122.255 26.764 121.251 26.3113 120.135 26.3113C117.912 26.3113 116.111 28.1108 116.111 30.3361V41.366H112.413V30.7977C112.413 26.5578 115.848 23.1291 120.082 23.1291C122.202 23.1291 124.113 23.9852 125.505 25.3746C126.887 26.7572 127.75 28.6777 127.75 30.7977V30.7954Z" fill="url(#paint5_linear_1_3595)"/>
<path d="M131.701 17.7934C131.701 17.018 131.988 16.3502 132.561 15.7832C133.135 15.2163 133.816 14.9339 134.605 14.9339C135.394 14.9339 136.048 15.2163 136.615 15.7832C137.182 16.3502 137.465 17.0202 137.465 17.7934C137.465 18.5665 137.182 19.2545 136.615 19.8147C136.048 20.3749 135.378 20.6528 134.605 20.6528C133.832 20.6528 133.135 20.3727 132.561 19.8147C131.988 19.2545 131.701 18.5822 131.701 17.7934ZM132.756 23.6198H136.454V41.3615H132.756V23.6198Z" fill="url(#paint6_linear_1_3595)"/>
<path d="M143.249 18.4589H146.991V23.6198H150.689V27.0395H146.991V41.3615H143.249V27.0395H140.302V23.5773H143.249V18.4589Z" fill="url(#paint7_linear_1_3595)"/>
<path d="M152.992 32.4178C152.992 29.9954 153.949 27.8396 155.863 25.9549C157.777 24.0703 159.975 23.1268 162.454 23.1268C164.932 23.1268 167.233 24.0568 169.141 25.9124C171.048 27.7701 172 29.9371 172 32.4178C172 34.8986 171.066 37.1104 169.194 39.0085C167.323 40.9088 165.163 41.859 162.711 41.859C160.087 41.859 157.81 40.92 155.883 39.0421C153.954 37.1642 152.99 34.9568 152.99 32.4201L152.992 32.4178ZM168.39 32.4268C168.39 30.9186 167.816 29.6077 166.669 28.4962C165.521 27.3824 164.159 26.8267 162.584 26.8267C161.008 26.8267 159.569 27.3914 158.402 28.5186C157.232 29.6458 156.649 30.9926 156.649 32.5568C156.649 34.121 157.241 35.358 158.424 36.4785C159.608 37.5989 160.995 38.1592 162.586 38.1592C164.177 38.1592 165.49 37.5855 166.651 36.4359C167.812 35.2863 168.392 33.9507 168.392 32.4268H168.39Z" fill="url(#paint8_linear_1_3595)"/>
<defs>
<linearGradient id="paint0_linear_1_3595" x1="-1.92852" y1="57.604" x2="27.6209" y2="20.7331" gradientUnits="userSpaceOnUse">
<stop stop-color="#77CCF3"/>
<stop offset="0.1" stop-color="#74C3EB"/>
<stop offset="0.26" stop-color="#6CACD8"/>
<stop offset="0.47" stop-color="#6086B9"/>
<stop offset="0.7" stop-color="#4F528E"/>
<stop offset="0.74" stop-color="#4C4886"/>
</linearGradient>
<linearGradient id="paint1_linear_1_3595" x1="42.5998" y1="53.3876" x2="-12.763" y2="-9.25827" gradientUnits="userSpaceOnUse">
<stop stop-color="#77CCF3"/>
<stop offset="0.1" stop-color="#74C3EB"/>
<stop offset="0.26" stop-color="#6CACD8"/>
<stop offset="0.47" stop-color="#6086B9"/>
<stop offset="0.7" stop-color="#4F528E"/>
<stop offset="0.74" stop-color="#4C4886"/>
</linearGradient>
<linearGradient id="paint2_linear_1_3595" x1="45.5967" y1="27.9976" x2="171.987" y2="27.9976" gradientUnits="userSpaceOnUse">
<stop offset="0.65" stop-color="#415E92"/>
<stop offset="0.85" stop-color="#415E92"/>
</linearGradient>
<linearGradient id="paint3_linear_1_3595" x1="45.5967" y1="28.001" x2="172.015" y2="28.001" gradientUnits="userSpaceOnUse">
<stop offset="0.65" stop-color="#415E92"/>
<stop offset="0.85" stop-color="#415E92"/>
</linearGradient>
<linearGradient id="paint4_linear_1_3595" x1="45.5967" y1="27.9993" x2="172" y2="27.9993" gradientUnits="userSpaceOnUse">
<stop offset="0.65" stop-color="#415E92"/>
<stop offset="0.85" stop-color="#415E92"/>
</linearGradient>
<linearGradient id="paint5_linear_1_3595" x1="45.5967" y1="27.9941" x2="172" y2="27.9941" gradientUnits="userSpaceOnUse">
<stop offset="0.65" stop-color="#415E92"/>
<stop offset="0.85" stop-color="#415E92"/>
</linearGradient>
<linearGradient id="paint6_linear_1_3595" x1="45.5967" y1="27.9964" x2="172" y2="27.9964" gradientUnits="userSpaceOnUse">
<stop offset="0.65" stop-color="#415E92"/>
<stop offset="0.85" stop-color="#415E92"/>
</linearGradient>
<linearGradient id="paint7_linear_1_3595" x1="45.624" y1="27.9976" x2="172.027" y2="27.9976" gradientUnits="userSpaceOnUse">
<stop offset="0.65" stop-color="#415E92"/>
<stop offset="0.85" stop-color="#415E92"/>
</linearGradient>
<linearGradient id="paint8_linear_1_3595" x1="152.992" y1="32.4918" x2="172.002" y2="32.4918" gradientUnits="userSpaceOnUse">
<stop offset="0.65" stop-color="#415E92"/>
<stop offset="0.85" stop-color="#415E92"/>
</linearGradient>
</defs>
</svg>
