<svg width="127" height="30" viewBox="0 0 127 30" fill="none" xmlns="http://www.w3.org/2000/svg">
<path d="M0.596741 0.965851H7.24117C12.5029 0.965851 16.4156 2.35748 18.9838 5.1385C21.5497 7.91953 22.8337 11.095 22.8337 14.6648C22.8337 18.2346 21.5071 21.4459 18.856 24.2135C16.2027 26.9811 12.3483 28.3638 7.28599 28.3638H0.596741V0.965851ZM4.33689 4.62084V24.6639H4.55202C7.33305 24.6639 9.4261 24.5384 10.8312 24.2875C12.2363 24.0365 13.5696 23.4874 14.8313 22.6426C16.0929 21.7955 17.0969 20.675 17.8431 19.2767C18.5894 17.8783 18.9614 16.341 18.9614 14.6626C18.9614 12.5561 18.3675 10.649 17.1776 8.94365C15.9876 7.23828 14.5646 6.09091 12.9085 5.50378C11.2525 4.91665 9.02721 4.62309 6.2305 4.62309H4.33914L4.33689 4.62084Z" fill="url(#paint0_linear_1_3599)"/>
<path d="M44.5083 20.2112H29.3684C29.6978 22.0331 30.4463 23.362 31.616 24.2001C32.7858 25.0382 34.0564 25.4573 35.4324 25.4573C37.5546 25.4573 39.3316 24.5766 40.7659 22.8129L43.4976 24.8769C41.4471 27.5302 38.7019 28.8546 35.2621 28.8546C32.6245 28.8546 30.4149 27.9515 28.6378 26.1452C26.8607 24.339 25.9711 22.0958 25.9711 19.4157C25.9711 16.9058 26.8719 14.7298 28.6692 12.8878C30.4687 11.0457 32.6648 10.1247 35.2598 10.1247C37.8549 10.1247 39.9972 11.0591 41.8191 12.9303C43.6388 14.8015 44.5351 17.2285 44.506 20.209L44.5083 20.2112ZM29.756 17.224H40.5955C39.3922 14.7858 37.6128 13.5668 35.2621 13.5668C32.6962 13.5668 30.8608 14.7858 29.756 17.224Z" fill="url(#paint1_linear_1_3599)"/>
<path d="M46.9823 10.6199H50.9017L55.9775 20.879L60.9076 10.6199H64.8516L55.917 29.0293L46.9823 10.6199Z" fill="url(#paint2_linear_1_3599)"/>
<path d="M82.7501 17.7954V28.3638H79.1579V17.3338C79.1579 16.2178 78.7052 15.2139 77.9836 14.4856C77.2553 13.764 76.2514 13.3113 75.1354 13.3113C72.9123 13.3113 71.1106 15.1108 71.1106 17.3361V28.366H67.413V17.7977C67.413 13.5578 70.8484 10.1291 75.0816 10.1291C77.2015 10.1291 79.1131 10.9852 80.5047 12.3746C81.8874 13.7572 82.7501 15.6777 82.7501 17.7977V17.7954Z" fill="url(#paint3_linear_1_3599)"/>
<path d="M86.7009 4.79336C86.7009 4.01799 86.9878 3.35019 87.5615 2.78323C88.1351 2.21627 88.8164 1.9339 89.6052 1.9339C90.394 1.9339 91.0484 2.21627 91.6153 2.78323C92.1823 3.35019 92.4647 4.02023 92.4647 4.79336C92.4647 5.56649 92.1823 6.25446 91.6153 6.8147C91.0484 7.37494 90.3783 7.65282 89.6052 7.65282C88.8321 7.65282 88.1351 7.3727 87.5615 6.8147C86.9878 6.25446 86.7009 5.58218 86.7009 4.79336ZM87.7564 10.6198H91.454V28.3615H87.7564V10.6198Z" fill="url(#paint4_linear_1_3599)"/>
<path d="M98.2486 5.45892H101.991V10.6198H105.689V14.0395H101.991V28.3615H98.2486V14.0395H95.3017V10.5773H98.2486V5.45892Z" fill="url(#paint5_linear_1_3599)"/>
<path d="M107.992 19.4178C107.992 16.9954 108.949 14.8396 110.863 12.9549C112.777 11.0703 114.975 10.1268 117.454 10.1268C119.932 10.1268 122.233 11.0568 124.141 12.9124C126.048 14.7701 127 16.9371 127 19.4178C127 21.8986 126.066 24.1104 124.194 26.0085C122.323 27.9088 120.163 28.859 117.711 28.859C115.087 28.859 112.81 27.92 110.883 26.0421C108.954 24.1642 107.99 21.9568 107.99 19.4201L107.992 19.4178ZM123.39 19.4268C123.39 17.9186 122.816 16.6077 121.669 15.4962C120.521 14.3824 119.159 13.8267 117.584 13.8267C116.008 13.8267 114.569 14.3914 113.402 15.5186C112.232 16.6458 111.649 17.9926 111.649 19.5568C111.649 21.121 112.241 22.358 113.424 23.4785C114.608 24.5989 115.995 25.1592 117.586 25.1592C119.177 25.1592 120.49 24.5855 121.651 23.4359C122.812 22.2863 123.392 20.9507 123.392 19.4268H123.39Z" fill="url(#paint6_linear_1_3599)"/>
<defs>
<linearGradient id="paint0_linear_1_3599" x1="0.596741" y1="14.9976" x2="126.987" y2="14.9976" gradientUnits="userSpaceOnUse">
<stop offset="0.65" stop-color="#415E92"/>
<stop offset="0.85" stop-color="#415E92"/>
</linearGradient>
<linearGradient id="paint1_linear_1_3599" x1="0.596741" y1="15.001" x2="127.015" y2="15.001" gradientUnits="userSpaceOnUse">
<stop offset="0.65" stop-color="#415E92"/>
<stop offset="0.85" stop-color="#415E92"/>
</linearGradient>
<linearGradient id="paint2_linear_1_3599" x1="0.596741" y1="14.9993" x2="127" y2="14.9993" gradientUnits="userSpaceOnUse">
<stop offset="0.65" stop-color="#415E92"/>
<stop offset="0.85" stop-color="#415E92"/>
</linearGradient>
<linearGradient id="paint3_linear_1_3599" x1="0.596741" y1="14.9941" x2="127" y2="14.9941" gradientUnits="userSpaceOnUse">
<stop offset="0.65" stop-color="#415E92"/>
<stop offset="0.85" stop-color="#415E92"/>
</linearGradient>
<linearGradient id="paint4_linear_1_3599" x1="0.596741" y1="14.9964" x2="127" y2="14.9964" gradientUnits="userSpaceOnUse">
<stop offset="0.65" stop-color="#415E92"/>
<stop offset="0.85" stop-color="#415E92"/>
</linearGradient>
<linearGradient id="paint5_linear_1_3599" x1="0.624012" y1="14.9976" x2="127.027" y2="14.9976" gradientUnits="userSpaceOnUse">
<stop offset="0.65" stop-color="#415E92"/>
<stop offset="0.85" stop-color="#415E92"/>
</linearGradient>
<linearGradient id="paint6_linear_1_3599" x1="107.992" y1="19.4918" x2="127.002" y2="19.4918" gradientUnits="userSpaceOnUse">
<stop offset="0.65" stop-color="#415E92"/>
<stop offset="0.85" stop-color="#415E92"/>
</linearGradient>
</defs>
</svg>
